<svg xmlns="http://www.w3.org/2000/svg" width="809.32" height="169.53" viewBox="0 0 809.32 169.53"><defs><style>.f{fill:#71efa3;}.g{fill:#1e224f;}</style></defs><g id="a"></g><g id="b"></g><g id="c"></g><g id="d"><g><g><path class="f" d="M0,153.37V16.15C0,7.23,7.23,0,16.15,0h51.42l101.95,101.95v51.42c0,8.92-7.23,16.15-16.15,16.15H16.15c-8.92,0-16.15-7.23-16.15-16.15Z"></path><path class="g" d="M67.58,85.8V0l101.95,101.95H83.73c-8.92,0-16.15-7.23-16.15-16.15Z"></path></g><g><path class="g" d="M237.77,141.16V30.85h27.74V116.11h58.94v25.06h-86.67Z"></path><path class="g" d="M369.35,92.62l22.06-4.26v-1.42c0-5.04-2.68-7.72-12.61-7.72-11.66,0-26.79,6.46-35.61,14.02l3.62-26c9.3-7.09,22.22-10.56,36.72-10.56,23.64,0,35.46,9.77,35.46,31.2v53.26h-27.58v-17.65c-3.62,8.98-13.55,19.54-31.36,19.54-16.39,0-25.37-10.09-25.37-25.21,0-17.02,15.44-21.43,34.67-25.21Zm3.15,31.04c7.72,0,15.29-3.62,18.91-8.19v-13.08l-18.28,5.52c-7.41,2.21-11.03,4.57-11.03,8.98s3.62,6.78,10.4,6.78Z"></path><path class="g" d="M433.02,166.69l-3.62-23.95c4.1,1.89,8.67,2.52,12.61,2.52,8.19,0,10.4-3.62,13.24-10.24l.47-1.1-32.78-75.33h29.63l17.96,45.7,17.49-45.7h28.52l-35.77,87.3c-7.09,17.33-14.03,23.64-31.68,23.64-5.83,0-11.66-.95-16.07-2.84Z"></path><path class="g" d="M605.57,105.23h-63.51c2.05,10.09,11.19,15.76,26.63,15.76s27.58-4.88,36.56-13.08l-4.88,26.63c-7.56,5.2-20.01,8.51-35.46,8.51-32.62,0-50.43-16.86-50.43-43.18,0-24.11,16.86-43.18,47.43-43.18s43.65,18.28,43.65,44.44v4.1Zm-63.03-15.29h37.35c-1.58-8.19-7.25-14.5-18.28-14.5s-16.86,6.15-19.07,14.5Z"></path><path class="g" d="M615.5,141.16V58.59h27.42v32.62c3.78-20.64,16.07-29.31,28.52-34.2l4.88,29.47c-11.35,2.36-23.64,5.2-33.41,10.4v44.28h-27.42Z"></path><path class="g" d="M682.78,141.16V26.12l27.42-3.15v118.19h-27.42Z"></path><path class="g" d="M725.8,166.69l-3.62-23.95c4.1,1.89,8.67,2.52,12.61,2.52,8.19,0,10.4-3.62,13.24-10.24l.47-1.1-32.78-75.33h29.63l17.96,45.7,17.49-45.7h28.52l-35.77,87.3c-7.09,17.33-14.03,23.64-31.68,23.64-5.83,0-11.66-.95-16.07-2.84Z"></path></g></g></g><g id="e"></g></svg>